<svg width="40" height="40" viewBox="0 0 40 40" fill="none" xmlns="http://www.w3.org/2000/svg">
<path d="M11.717 0.139876C9.58893 0.240276 8.13571 0.579877 6.8653 1.07908C5.55049 1.59148 4.43608 2.27908 3.32727 3.39189C2.21845 4.50469 1.53565 5.6199 1.02684 6.9367C0.534438 8.2099 0.200834 9.66431 0.106834 11.7935C0.0128326 13.9227 -0.00796765 14.6071 0.00243245 20.0383C0.0128326 25.4696 0.0368328 26.1504 0.140034 28.284C0.241635 30.4116 0.580038 31.8644 1.07924 33.1352C1.59245 34.45 2.27926 35.564 3.39247 36.6732C4.50568 37.7824 5.62009 38.4636 6.9401 38.9732C8.21212 39.4648 9.66693 39.8 11.7958 39.8932C13.9246 39.9864 14.6098 40.008 20.0394 39.9976C25.4691 39.9872 26.1527 39.9632 28.2859 39.862C30.4191 39.7608 31.8644 39.42 33.1356 38.9232C34.4504 38.4088 35.5652 37.7232 36.6736 36.6096C37.782 35.496 38.4644 34.38 38.9728 33.0624C39.4656 31.7904 39.8004 30.3356 39.8928 28.2084C39.986 26.0736 40.008 25.392 39.9976 19.9615C39.9872 14.5311 39.9628 13.8503 39.8616 11.7175C39.7604 9.58471 39.4216 8.1363 38.9228 6.8647C38.4088 5.54989 37.7228 4.43669 36.61 3.32669C35.4972 2.21668 34.3804 1.53468 33.0632 1.02748C31.7904 0.535077 30.3363 0.199476 28.2075 0.107476C26.0787 0.0154753 25.3935 -0.00812481 19.9618 0.00227523C14.5302 0.0126753 13.8502 0.0358754 11.717 0.139876ZM11.9506 36.2952C10.0005 36.2104 8.94172 35.8864 8.23612 35.6152C7.30171 35.2552 6.6361 34.82 5.93289 34.1236C5.22969 33.4272 4.79768 32.7592 4.43288 31.8268C4.15887 31.1212 3.82887 30.0636 3.73767 28.1136C3.63847 26.006 3.61767 25.3732 3.60607 20.0335C3.59447 14.6939 3.61487 14.0619 3.70727 11.9535C3.79047 10.0051 4.11647 8.94511 4.38728 8.2399C4.74728 7.3043 5.18088 6.6399 5.87889 5.9371C6.5769 5.23429 7.24291 4.80149 8.17612 4.43669C8.88092 4.16149 9.93853 3.83429 11.8878 3.74149C13.997 3.64149 14.629 3.62149 19.9678 3.60989C25.3067 3.59829 25.9403 3.61829 28.0503 3.71109C29.9987 3.79589 31.0591 4.11869 31.7636 4.39109C32.6984 4.75109 33.3636 5.18349 34.0664 5.8827C34.7692 6.5819 35.2024 7.2455 35.5672 8.1807C35.8428 8.88351 36.17 9.94071 36.262 11.8911C36.3624 14.0003 36.3852 14.6327 36.3948 19.9711C36.4044 25.3096 36.3856 25.9436 36.2932 28.0512C36.208 30.0012 35.8848 31.0604 35.6132 31.7668C35.2532 32.7008 34.8192 33.3668 34.1208 34.0692C33.4224 34.7716 32.7572 35.2044 31.8236 35.5692C31.1195 35.844 30.0607 36.172 28.1131 36.2648C26.0039 36.364 25.3719 36.3848 20.031 36.3964C14.6902 36.408 14.0602 36.3864 11.951 36.2952M28.2551 9.31071C28.2559 9.78542 28.3975 10.2492 28.6619 10.6435C28.9263 11.0377 29.3017 11.3447 29.7406 11.5256C30.1795 11.7065 30.6622 11.7532 31.1276 11.6598C31.593 11.5663 32.0203 11.3369 32.3553 11.0007C32.6904 10.6644 32.9182 10.2363 33.0099 9.77051C33.1017 9.30475 33.0532 8.82224 32.8707 8.38401C32.6882 7.94579 32.3798 7.57153 31.9846 7.30856C31.5894 7.0456 31.1251 6.90575 30.6503 6.9067C30.014 6.90797 29.4041 7.16194 28.955 7.61276C28.5058 8.06357 28.2541 8.67432 28.2551 9.31071ZM9.73093 20.0199C9.74213 25.692 14.3486 30.2796 20.0194 30.2688C25.6903 30.258 30.2811 25.652 30.2703 19.9799C30.2595 14.3079 25.6519 9.71911 19.9802 9.73031C14.3086 9.74151 9.72013 14.3487 9.73093 20.0199ZM13.3334 20.0127C13.3308 18.6942 13.7192 17.4044 14.4496 16.3066C15.18 15.2088 16.2195 14.3523 17.4367 13.8453C18.6539 13.3383 19.9942 13.2036 21.2879 13.4583C22.5817 13.713 23.7708 14.3456 24.7051 15.2761C25.6393 16.2066 26.2766 17.3933 26.5364 18.686C26.7962 19.9787 26.6668 21.3194 26.1646 22.5386C25.6625 23.7578 24.81 24.8007 23.7151 25.5355C22.6202 26.2702 21.332 26.6638 20.0134 26.6664C19.1379 26.6682 18.2706 26.4976 17.461 26.1642C16.6514 25.8308 15.9155 25.3411 15.2951 24.7233C14.6748 24.1054 14.1823 23.3714 13.8457 22.5632C13.5091 21.7549 13.335 20.8883 13.3334 20.0127Z" fill="white"/>
</svg>
