<?xml version="1.0" encoding="UTF-8"?>
<svg id="_レイヤー_1" xmlns="http://www.w3.org/2000/svg" version="1.1" viewBox="0 0 511.08 143.87">
  <!-- Generator: Adobe Illustrator 29.8.2, SVG Export Plug-In . SVG Version: 2.1.1 Build 3)  -->
  <defs>
    <style>
      .st0 {
        fill: #fff;
      }
    </style>
  </defs>
  <g>
    <polygon class="st0" points="290.67 39.01 317.53 39.01 317.53 45.04 297.04 45.04 297.04 57.46 314.53 57.46 314.53 63.11 297.04 63.11 297.04 81.09 290.67 81.09 290.67 39.01"/>
    <polygon class="st0" points="322.41 39.01 349.28 39.01 349.28 45.04 328.79 45.04 328.79 57.05 346.28 57.05 346.28 62.71 328.79 62.71 328.79 75.06 349.28 75.06 349.28 81.09 322.41 81.09 322.41 39.01"/>
    <polygon class="st0" points="355.28 39.01 361.29 39.01 380.33 68.91 380.45 68.91 380.45 39.01 386.83 39.01 386.83 81.09 380.8 81.09 361.78 51.19 361.66 51.19 361.66 81.09 355.28 81.09 355.28 39.01"/>
    <path class="st0" d="M422.61,69.32c-.92,3.91-2.68,6.91-5.28,9.01-2.67,2.08-5.84,3.12-9.49,3.12-3.31-.08-6.07-.89-8.28-2.42-2.25-1.48-3.89-3.19-4.91-5.14-.31-.63-.59-1.24-.84-1.82-.23-.6-.42-1.35-.58-2.25-.29-1.69-.43-4.94-.43-9.75s.14-8.16.43-9.81c.31-1.65.78-2.99,1.41-4.01,1.02-1.94,2.66-3.67,4.91-5.2,2.21-1.54,4.97-2.33,8.28-2.37,4.06.04,7.37,1.24,9.93,3.61,2.56,2.39,4.17,5.34,4.85,8.86h-6.75c-.52-1.69-1.46-3.14-2.83-4.33-1.42-1.14-3.15-1.72-5.19-1.76-1.5.04-2.79.34-3.87.9-1.1.58-1.98,1.3-2.65,2.16-.83.9-1.38,2.07-1.65,3.49-.31,1.5-.46,4.32-.46,8.46s.16,6.94.46,8.4c.27,1.46.82,2.65,1.65,3.55.67.87,1.56,1.57,2.65,2.11,1.08.64,2.37.95,3.87.95,3.58,0,6.25-1.92,8.02-5.74h6.75v-.02h0Z"/>
    <rect class="st0" x="428.05" y="39.01" width="6.38" height="42.08"/>
    <polygon class="st0" points="442.19 39.01 448.19 39.01 467.24 68.91 467.35 68.91 467.35 39.01 473.73 39.01 473.73 81.09 467.7 81.09 448.68 51.19 448.57 51.19 448.57 81.09 442.19 81.09 442.19 39.01"/>
    <path class="st0" d="M495.04,57.92h14.95v8.57c-.07,4.21-1.52,7.74-4.33,10.59-2.83,2.83-6.39,4.28-10.68,4.36-3.31-.08-6.07-.88-8.28-2.42-2.25-1.48-3.89-3.19-4.91-5.14-.31-.64-.59-1.24-.84-1.82-.23-.6-.42-1.35-.58-2.25-.29-1.69-.43-4.94-.43-9.75s.15-8.16.43-9.81c.31-1.66.78-2.99,1.41-4.01,1.02-1.94,2.66-3.67,4.91-5.19,2.21-1.54,4.97-2.33,8.28-2.37,4.06.04,7.37,1.24,9.93,3.61,2.56,2.38,4.17,5.34,4.85,8.86h-6.76c-.52-1.69-1.46-3.14-2.83-4.33-1.43-1.14-3.16-1.72-5.2-1.76-1.5.04-2.79.34-3.87.9-1.1.58-1.98,1.3-2.66,2.16-.83.9-1.38,2.07-1.64,3.49-.31,1.5-.46,4.32-.46,8.46s.15,6.94.46,8.4c.27,1.46.82,2.65,1.64,3.55.67.87,1.56,1.57,2.66,2.11,1.08.64,2.37.95,3.87.95,2.48,0,4.53-.85,6.15-2.54,1.62-1.62,2.44-3.74,2.48-6.38v-2.19h-8.57v-6.03l.02-.02h0Z"/>
  </g>
  <g>
    <polygon class="st0" points="1.88 10.81 40.12 10.81 40.12 21.48 26.87 21.48 26.87 80.18 15.13 80.18 15.13 21.48 1.88 21.48 1.88 10.81"/>
    <path class="st0" d="M43.59,45.49c0-4.32.76-8.58,2.27-12.76,1.51-4.18,3.63-7.92,6.36-11.21,2.73-3.29,6.02-5.93,9.87-7.92,3.85-1.99,8.12-2.98,12.81-2.98s9.13,1.01,12.99,3.02c3.85,2.02,7.13,4.66,9.83,7.92s4.79,6.98,6.27,11.16c1.48,4.18,2.22,8.44,2.22,12.76s-.74,8.58-2.22,12.76-3.57,7.9-6.27,11.16c-2.7,3.27-5.97,5.91-9.83,7.92-3.85,2.02-8.18,3.03-12.99,3.03s-9.13-1.01-12.98-3.03c-3.86-2.01-7.13-4.65-9.83-7.92-2.7-3.26-4.79-6.98-6.27-11.16s-2.22-8.43-2.22-12.76M55.33,45.49c0,3.32.5,6.45,1.51,9.39,1.01,2.93,2.4,5.5,4.18,7.69,1.78,2.2,3.85,3.94,6.22,5.21,2.37,1.28,4.92,1.91,7.65,1.91s5.19-.64,7.56-1.91,4.45-3.01,6.22-5.21c1.78-2.18,3.19-4.76,4.22-7.69,1.04-2.94,1.56-6.06,1.56-9.39s-.52-6.45-1.56-9.38c-1.03-2.93-2.44-5.5-4.22-7.69s-3.85-3.93-6.22-5.2c-2.37-1.28-4.89-1.91-7.56-1.91-3.15,0-5.93.74-8.36,2.22-2.43,1.49-4.48,3.4-6.14,5.74s-2.92,4.95-3.78,7.83-1.29,5.68-1.29,8.4"/>
    <polygon class="st0" points="126.41 10.81 126.41 52.52 144.02 10.81 155.76 10.81 141.09 45.49 155.76 80.18 144.02 80.18 135.22 59.37 126.41 80.18 114.68 80.18 114.68 10.81 126.41 10.81"/>
    <polygon class="st0" points="206.91 10.81 190.63 45.49 190.63 80.18 178.89 80.18 178.89 45.49 162.62 10.81 174.36 10.81 184.76 32.95 195.17 10.81 206.91 10.81"/>
    <path class="st0" d="M206.91,45.49c0-4.32.75-8.58,2.27-12.76,1.51-4.18,3.63-7.92,6.35-11.21,2.72-3.29,6.02-5.93,9.87-7.92s8.12-2.98,12.81-2.98,9.13,1.01,12.98,3.02c3.85,2.02,7.12,4.66,9.82,7.92s4.78,6.98,6.27,11.16c1.48,4.18,2.22,8.44,2.22,12.76s-.74,8.58-2.22,12.76c-1.49,4.18-3.58,7.9-6.27,11.16-2.7,3.27-5.97,5.91-9.82,7.92-3.86,2.02-8.18,3.03-12.98,3.03s-9.13-1.01-12.98-3.03c-3.87-2.01-7.14-4.65-9.83-7.92-2.71-3.26-4.79-6.98-6.28-11.16-1.48-4.18-2.22-8.43-2.22-12.76M218.65,45.49c0,3.32.51,6.45,1.51,9.39,1.01,2.93,2.4,5.5,4.18,7.69,1.78,2.2,3.86,3.94,6.22,5.21,2.37,1.28,4.92,1.91,7.66,1.91s5.18-.64,7.56-1.91,4.45-3.01,6.22-5.21c1.78-2.18,3.19-4.76,4.23-7.69,1.04-2.94,1.55-6.06,1.55-9.39s-.51-6.45-1.55-9.38c-1.04-2.93-2.44-5.5-4.23-7.69-1.78-2.19-3.85-3.93-6.22-5.2-2.37-1.28-4.89-1.91-7.56-1.91-3.15,0-5.93.74-8.37,2.22-2.43,1.49-4.47,3.4-6.14,5.74-1.66,2.34-2.92,4.95-3.78,7.83s-1.29,5.68-1.29,8.4"/>
  </g>
  <g>
    <path class="st0" d="M322.25,1.38c-.91,0-1.78.12-2.65.27,7.29,1.26,12.86,7.58,12.86,15.24s-5.56,13.97-12.86,15.23c.87.15,1.74.27,2.65.27,8.56,0,15.5-6.94,15.5-15.5s-6.94-15.5-15.5-15.5"/>
    <polygon class="st0" points="344.66 12.92 344.66 20.83 508.08 18.71 508.08 15.05 344.66 12.92"/>
    <polygon class="st0" points="301.87 20.52 327.58 20.52 327.58 13.24 305.96 13.24 301.87 20.52"/>
    <polygon class="st0" points="295.5 20.52 299.59 20.52 303.67 13.24 299.59 13.24 295.5 20.52"/>
    <polygon class="st0" points="290.13 20.52 294.22 20.52 298.3 13.24 294.22 13.24 290.13 20.52"/>
  </g>
  <g>
    <path class="st0" d="M63.34,99.54v2.82h18.4v4.88h-18.4v1.88h12.77v18.96h-5.26v-.94h-5.26c4.75,3.88,10.57,6.57,17.46,8.07l-2.25,5.63c-6.13-2.13-11.95-5.38-17.46-9.76v11.45h-5.26v-11.08c-1,1.25-2.88,2.75-5.63,4.51-3.63,2.25-7.2,4.13-10.7,5.63l-2.63-5.26c8.64-2.75,14.33-5.82,17.08-9.2h-5.63v1.5h-5.26v-19.52h12.77v-1.88h-18.59v-4.88h18.59v-4.32h4.51c1.5.13,1.75.63.75,1.5h0ZM50.58,113.62v2.25h7.51v-2.25h-7.51ZM50.58,120.38v2.25h7.51v-2.25h-7.51ZM63.34,113.62v2.25h7.51v-2.25s-7.51,0-7.51,0ZM63.34,120.38v2.25h7.51v-2.25s-7.51,0-7.51,0Z"/>
    <path class="st0" d="M101.26,131.64c-.75.88-1.69,1.82-2.82,2.82-2.75,2.38-5.7,4.38-8.82,6.01l-2.63-4.69c1.13-.5,2.31-1.06,3.57-1.69,3.25-1.88,6.07-4.25,8.45-7.13l3.38,3.38c.87,1,.5,1.44-1.13,1.31h0ZM112.15,98.97c-.13.25-.38.5-.75.75v3.57h18.77v5.07h-42.8v-5.07h18.4v-5.26h4.88c1.25,0,1.75.31,1.5.94ZM123.61,126.01h-5.26v-.94h-6.57v13.33c0,.5-.06,1-.19,1.5-.5,1.62-1.69,2.44-3.57,2.44h-5.26l-.56-5.63h3.19c.5,0,.81-.12.94-.38.12-.25.19-.56.19-.94v-10.33h-7.88v1.31h-5.26v-15.77h30.23v15.41ZM98.64,115.12v5.44h19.71v-5.44h-19.71ZM126.98,140.09c-1.25-.38-2.44-.88-3.57-1.5-4.38-2.38-7.57-5.26-9.58-8.64l3.94-3c.75,1.13,1.88,2.32,3.38,3.57,2.5,2.13,5.32,3.75,8.45,4.88l-2.63,4.69h0Z"/>
    <path class="st0" d="M168.85,107.8c2,1.25,2.13,2,.38,2.25-.5,8.51-3,15.08-7.51,19.71-4.38,4.51-10.77,8.07-19.15,10.7l-3.38-5.07c15.89-3.88,23.9-11.83,24.03-23.84h-27.97v-5.26h28.91l1.31-.75,3.38,2.25h0Z"/>
    <path class="st0" d="M203.2,117.93h-9.76v13.33h12.95v5.07h-30.6v-5.07h12.39v-13.33h-9.76v-5.07h24.78v5.07Z"/>
    <path class="st0" d="M237,132.2c-5.76,3.51-13.08,5.63-21.96,6.38-.25.75-.69,1.06-1.31.94-.5-.13-.82-.63-.94-1.5l-.75-5.26c8.13-.38,15.08-2.07,20.84-5.07,5.75-3,10.01-8.26,12.77-15.77l4.69,3.38c-3,7.76-7.45,13.39-13.33,16.9h-.01ZM227.42,112.12l-3.94,4.13c-1.5-1.5-3.32-3.13-5.44-4.88-2.25-1.75-3.88-3-4.88-3.76l3.38-3.94c3.63,2,7.26,4.82,10.89,8.45h0Z"/>
    <path class="st0" d="M257.84,111.55c4.38,2.25,7.95,4.44,10.7,6.57l-3.38,4.32c-2.63-2.13-6.01-4.38-10.14-6.76l2.82-4.13ZM264.03,138.77c0,.75-.31,1.25-.94,1.5-.5.12-1-.38-1.5-1.5l-2.44-4.88c7.76-1.88,14.2-4.57,19.34-8.07,5-3.5,9.07-7.88,12.2-13.14l3.75,3.38c-5.51,11.01-15.65,18.58-30.41,22.72h0ZM270.79,111.36c-2.75-2.25-6.13-4.51-10.14-6.76l2.82-4.32c3.75,1.75,7.32,4.01,10.7,6.76l-3.38,4.32Z"/>
    <path class="st0" d="M324.67,132.2c-5.76,3.51-13.08,5.63-21.96,6.38-.25.75-.69,1.06-1.31.94-.5-.13-.82-.63-.94-1.5l-.75-5.26c8.13-.38,15.08-2.07,20.84-5.07,5.75-3,10.01-8.26,12.77-15.77l4.69,3.38c-3,7.76-7.45,13.39-13.33,16.9h-.01ZM315.09,112.12l-3.94,4.13c-1.5-1.5-3.32-3.13-5.44-4.88-2.25-1.75-3.88-3-4.88-3.76l3.38-3.94c3.63,2,7.26,4.82,10.89,8.45h-.01Z"/>
    <path class="st0" d="M361.09,102.92c-.13.38-.5.56-1.13.56-.63,1.25-1.19,2.44-1.69,3.57h12.01l1.88-.75,3.57,3.19c.62.63.56,1.19-.19,1.69-.88,7.01-3.63,13.21-8.26,18.59-4.5,5.26-9.76,9.26-15.77,12.02l-3.38-4.88c5.88-2.63,10.7-5.94,14.46-9.95,3.75-4.13,6.07-9.01,6.95-14.64h-13.89c-.88,1.5-2.13,3.38-3.75,5.63-1.5,2-3.38,4.13-5.63,6.38l-4.13-3.57c3.25-3,6.07-6.32,8.45-9.95,2.25-3.88,4-7.7,5.26-11.45l4.32,2.25c.75.38,1.06.82.94,1.31h-.02ZM376.3,108.17c-1.38-2.25-3.57-4.76-6.57-7.51l3.19-2.63c2.25,2,4.5,4.38,6.76,7.13l-3.38,3h0ZM384.93,102.73l-3.19,3c-1.88-2.75-3.94-5-6.2-6.76l3-2.44c2.25,1.63,4.38,3.69,6.38,6.2h.01Z"/>
    <path class="st0" d="M411.97,99.16v3.38h19.34v5.26h-10.51l-2.25,3.19h10.33v26.85c0,.5-.06,1-.19,1.5-.5,1.62-1.69,2.44-3.57,2.44h-4.88l-.56-4.88h2.82c.5,0,.81-.12.94-.38.12-.25.19-.56.19-.94v-14.08c-.25.5-.5.88-.75,1.13-.63.63-1.38.94-2.25.94h-6.95c-.5,0-.94-.06-1.31-.19-1.5-.62-2.25-1.62-2.25-3v-4.51h-2.63c-.13,1.5-.44,2.82-.94,3.94-1,2.13-2.82,3.75-5.44,4.88h18.4v12.01h-15.02v1.69h-4.88v-13.14c-1.25.63-2.25,1-3,1.13l-.94-3.75v19.71h-5.26v-31.35h9.76l-1.5-3.19h-10.7v-5.26h18.77v-4.88h4.51c1.5.13,1.75.63.75,1.5h-.03ZM395.63,115.87v5.26c2.13-.12,3.88-.75,5.26-1.88,1-.87,1.5-2,1.5-3.38,0,0-6.76,0-6.76,0ZM404.46,107.8l1.5,3.19h6.38l2.07-3.19h-9.95ZM404.46,129.2v3h10.14v-3h-10.14ZM414.97,115.87v2.25c0,.38.06.63.19.75.12.13.38.19.75.19h2.25c.62,0,1-.38,1.13-1.13l.38-1.31,3.94,1.13v-1.88s-8.64,0-8.64,0Z"/>
    <path class="st0" d="M460.4,100.48c.87,1.5,2.06,2.94,3.57,4.32,4,3.76,9.26,6.32,15.77,7.7l-2.63,5.63c-3-.62-5.7-1.75-8.07-3.38v3.57h-22.72v-3c-1.5,1.13-4.51,2.57-9.01,4.32l-2.82-5.44c4-1,7.63-2.63,10.89-4.88,4.25-2.88,7.32-6.63,9.2-11.26l5.07.56c2,.63,2.25,1.25.75,1.88v-.02ZM477.11,126.76h-12.58c5,3.75,9.26,7.76,12.77,12.02l-4.69,3.19c-1.13-1.38-2.32-2.69-3.57-3.94l-26.66,3c-.13.5-.38.87-.75,1.13-.25.12-.56.12-.94,0-.5-.13-.88-.69-1.13-1.69l-1.5-5.26,8.26-.38c1.62-2.5,3.06-5.19,4.32-8.07h-12.77v-5.63h39.24v5.63ZM449.7,112.68h15.77c-3.13-2.38-5.82-5.13-8.07-8.26-2,2.75-4.57,5.51-7.7,8.26h0ZM456.83,126.76c-1.38,2.63-2.88,5.2-4.51,7.7l12.2-.94c-1.13-1.13-2.63-2.44-4.51-3.94l3.94-2.82h-7.13.01Z"/>
  </g>
</svg>