<svg width="29" height="39" viewBox="0 0 29 39" fill="none" xmlns="http://www.w3.org/2000/svg">
<path d="M2.57549 1.83486C-0.0070408 3.52758 -0.513276 8.82105 0.462511 13.142C1.2182 16.5051 2.83228 21.0116 5.55421 25.2583C8.11473 29.2525 11.6877 32.831 14.4097 34.9023C17.9093 37.5602 22.8909 39.2529 25.4735 37.5602C26.7794 36.7064 28.7163 34.3604 28.8043 33.9446C28.8043 33.9446 27.6672 32.1702 27.4177 31.7842L23.6026 25.8374C23.3165 25.3919 21.541 25.8002 20.6386 26.3199C19.4207 27.0178 18.2981 28.8887 18.2981 28.8887C17.4617 29.3787 16.7648 28.8887 15.3047 28.2131C13.5072 27.3742 11.4896 24.7757 9.88289 22.4297C8.41554 19.9871 6.89683 17.0619 6.87482 15.0574C6.86015 13.4315 6.70608 12.5851 7.48377 12.0135C7.48377 12.0135 9.63344 11.7388 10.756 10.8998C11.5923 10.2762 12.6782 8.79878 12.3994 8.36075L8.58428 2.41395C8.33484 2.00562 7.19764 0.223804 7.19764 0.223804C6.77945 0.134714 3.88143 0.973651 2.57549 1.82744V1.83486Z" fill="white"/>
</svg>
